<?xml version="1.0" standalone="no"?>
<!DOCTYPE svg PUBLIC "-//W3C//DTD SVG 20010904//EN"
 "http://www.w3.org/TR/2001/REC-SVG-20010904/DTD/svg10.dtd">
<svg version="1.0" xmlns="http://www.w3.org/2000/svg"
 width="260.000000pt" height="260.000000pt" viewBox="0 0 260.000000 260.000000"
 preserveAspectRatio="xMidYMid meet">
<metadata>
Created by potrace 1.14, written by Peter Selinger 2001-2017
</metadata>
<g transform="translate(0.000000,260.000000) scale(0.100000,-0.100000)"
fill="#000000" stroke="none">
<path d="M745 2280 c-302 -175 -556 -323 -562 -329 -10 -9 -13 -152 -13 -649
0 -350 4 -642 8 -648 4 -6 258 -155 564 -332 l558 -321 557 321 c307 177 561
327 565 332 4 6 8 297 8 646 0 349 -4 640 -8 646 -6 9 -1119 655 -1125 653 -1
0 -249 -144 -552 -319z m1160 -529 c41 -13 82 -19 98 -15 49 10 57 -7 57 -125
0 -110 -7 -131 -42 -131 -12 0 -27 20 -47 64 -46 102 -126 146 -263 146 -72 0
-123 -18 -172 -61 -104 -92 -133 -304 -66 -481 26 -69 99 -154 155 -179 50
-23 154 -25 195 -4 30 15 30 17 30 99 0 106 -12 123 -95 140 -57 11 -60 13
-60 41 l0 30 230 0 230 0 3 -32 c3 -29 0 -33 -38 -44 -22 -7 -45 -17 -50 -24
-5 -6 -11 -60 -12 -121 l-3 -109 -46 -22 c-145 -69 -385 -91 -500 -45 -166 66
-261 188 -290 373 -34 218 104 439 319 510 77 26 264 21 367 -10z m-797 -3 c8
-8 12 -46 12 -105 0 -81 -2 -94 -19 -103 -29 -15 -48 -3 -56 36 -12 66 -30 74
-160 74 l-115 0 0 -125 0 -125 108 0 c119 0 138 7 150 55 9 33 35 44 57 25 22
-18 22 -262 0 -280 -22 -18 -55 -3 -55 26 0 13 -9 33 -20 44 -18 18 -33 20
-130 20 l-110 0 2 -162 3 -163 58 -19 c52 -17 57 -21 57 -47 l0 -29 -216 0
-215 0 3 31 c2 26 9 33 38 43 19 6 40 22 47 36 18 36 19 669 1 692 -7 9 -29
21 -48 25 -28 7 -36 15 -38 36 l-3 27 318 0 c235 0 322 -3 331 -12z"/>
</g>
</svg>
